<svg width="20" height="20" fill="none" xmlns="http://www.w3.org/2000/svg"><g clip-path="url(#a)" fill="#303030"><path d="M19.9804 5.88c-.0468-1.0626-.2187-1.7932-.4648-2.4263-.254-.672-.6447-1.2736-1.1566-1.7737A4.9217 4.9217 0 0 0 16.5891.5274c-.6367-.2461-1.3635-.418-2.4261-.4648C13.0924.0118 12.7525 0 10.0371 0S6.9818.0118 5.9152.0586C4.8525.1055 4.122.2775 3.489.5235c-.672.254-1.2737.6446-1.7738 1.1565A4.924 4.924 0 0 0 .5626 3.45c-.2462.6368-.418 1.3634-.4649 2.426C.047 6.9468.0352 7.2867.0352 10.002c0 2.7153.0117 3.0552.0586 4.1219.0468 1.0626.2188 1.7932.465 2.4263a4.9322 4.9322 0 0 0 1.1564 1.7737 4.9224 4.9224 0 0 0 1.7699 1.1526c.6368.2461 1.3635.418 2.4263.4648 1.0665.047 1.4065.0586 4.1219.0586s3.0552-.0116 4.1219-.0586c1.0627-.0468 1.7932-.2187 2.4261-.4648a5.116 5.116 0 0 0 2.9265-2.9263c.246-.6369.418-1.3637.4649-2.4263.0468-1.0667.0586-1.4066.0586-4.1219 0-2.7154-.004-3.0553-.0509-4.122Zm-1.801 8.1657c-.043.9768-.2071 1.5042-.3438 1.8558a3.318 3.318 0 0 1-1.8989 1.8989c-.3516.1368-.8829.3008-1.8558.3437-1.0549.047-1.3713.0586-4.0398.0586s-2.9889-.0116-4.04-.0586c-.9767-.0429-1.5042-.2069-1.8558-.3437-.4336-.1602-.8283-.4142-1.1486-.7463a3.1091 3.1091 0 0 1-.7463-1.1486c-.1368-.3516-.3008-.883-.3437-1.8558-.047-1.0549-.0586-1.3714-.0586-4.04 0-2.6685.0116-2.9888.0586-4.0398.0429-.9767.207-1.5042.3437-1.8558.1603-.4337.4142-.8282.7503-1.1487a3.1048 3.1048 0 0 1 1.1486-.7462c.3516-.1367.883-.3008 1.8558-.3438 1.0549-.0469 1.3714-.0586 4.0398-.0586 2.6725 0 2.9888.0117 4.0399.0586.9768.043 1.5042.207 1.8559.3438.4335.1601.8282.414 1.1486.7462.332.3243.586.715.7463 1.1487.1367.3517.3008.883.3438 1.8559.0469 1.0548.0586 1.3712.0586 4.0397 0 2.6686-.0117 2.9811-.0586 4.036Z"/><path d="M10.0371 4.8641c-2.8364 0-5.1377 2.3012-5.1377 5.1378 0 2.8365 2.3013 5.1377 5.1377 5.1377 2.8366 0 5.1378-2.3012 5.1378-5.1377 0-2.8366-2.3012-5.1378-5.1378-5.1378Zm0 8.4705c-1.84 0-3.3327-1.4925-3.3327-3.3327 0-1.8403 1.4926-3.3328 3.3327-3.3328 1.8403 0 3.3327 1.4925 3.3327 3.3328 0 1.8402-1.4924 3.3327-3.3327 3.3327ZM16.5777 4.6611c0 .6624-.537 1.1994-1.1996 1.1994-.6623 0-1.1994-.537-1.1994-1.1994 0-.6625.5371-1.1994 1.1994-1.1994.6626 0 1.1996.5369 1.1996 1.1994Z"/></g><defs><clipPath id="a"><path fill="#fff" d="M0 0h20v20H0z"/></clipPath></defs></svg>