<svg width="20" height="20" fill="none" xmlns="http://www.w3.org/2000/svg"><g clip-path="url(#a)" fill="#303030"><path d="M19.9951 20.0001v-.0008h.005v-7.335c0-3.5884-.7725-6.3525-4.9675-6.3525-2.0167 0-3.37 1.1066-3.9225 2.1558h-.0584V6.6468H7.0742v13.3525h4.1417v-6.6117c0-1.7408.33-3.4242 2.4858-3.4242 2.1242 0 2.1559 1.9867 2.1559 3.5359v6.5008h4.1375ZM.33 6.6475h4.1467V20H.3301V6.6475ZM2.4017 0C1.0758 0 0 1.0758 0 2.4017c0 1.3258 1.0758 2.4241 2.4017 2.4241 1.3258 0 2.4016-1.0983 2.4016-2.4241C4.8025 1.0758 3.7267 0 2.4017 0Z"/></g><defs><clipPath id="a"><path fill="#fff" d="M0 0h20v20H0z"/></clipPath></defs></svg>