<svg width="24" height="24" fill="none" xmlns="http://www.w3.org/2000/svg"><path clip-rule="evenodd" d="M19.9995 16.0028v2.4135a1.6092 1.6092 0 0 1-1.7538 1.6089 15.9212 15.9212 0 0 1-6.9426-2.4697 15.6877 15.6877 0 0 1-4.8268-4.8269 15.9203 15.9203 0 0 1-2.4698-6.9748 1.609 1.609 0 0 1 1.601-1.7537h2.4134a1.609 1.609 0 0 1 1.609 1.3837c.1018.7723.2907 1.5307.563 2.2606a1.6088 1.6088 0 0 1-.362 1.6974l-1.0216 1.0217a12.872 12.872 0 0 0 4.8268 4.8268l1.0217-1.0217a1.609 1.609 0 0 1 1.6974-.362 10.3303 10.3303 0 0 0 2.2606.5632c.809.1141 1.404.8163 1.3837 1.633Z" stroke="#9DA4BD" stroke-linecap="round" stroke-linejoin="round"/></svg>