<svg xmlns="http://www.w3.org/2000/svg">
	<g clip-path="url(#a)">
		<path
			d="m39.1496 16.87-1.31-1a1.0006 1.0006 0 0 0-1.4.14l-18.13 20.82.28.31 4.49-4.14a.6898.6898 0 0 1-.1743-1.1782.6898.6898 0 0 1 .4443-.1518.68.68 0 0 1 .65.48l5.92-5.49a.51.51 0 0 1 .64 0l.3.22a.4996.4996 0 0 0 .67-.08l7.74-8.68a.8305.8305 0 0 0 .2258-.6524.8295.8295 0 0 0-.3458-.5976Z" />
		<path
			d="M47.6703 22.73a40.4498 40.4498 0 0 1-13.12 6.15 71.1556 71.1556 0 0 1-14.27 2.12 9.8288 9.8288 0 0 0 .52 2.08c2.72 2.46 23.2-1.74 27.2-6.6.85-1.01-.33-3.75-.33-3.75ZM23.3503 33a.6801.6801 0 1 1 .68-.68.6706.6706 0 0 1-.1962.4838.6703.6703 0 0 1-.4838.1962ZM4.0003 21.2899l.16-.69 2.6.59a3.36 3.36 0 0 1 .39 1.28 4.2696 4.2696 0 0 1-.09 1.42 3.7596 3.7596 0 0 1-.86 1.74 3.4293 3.4293 0 0 1-1.54 1 3.649 3.649 0 0 1-1.89.07 3.509 3.509 0 0 1-1.67-.88 3.2997 3.2997 0 0 1-.95-1.57 3.78 3.78 0 0 1 0-2 4.2705 4.2705 0 0 1 .57-1.38 2.9208 2.9208 0 0 1 1-.93l.36.55a2.8609 2.8609 0 0 0-1.32 1.94 3.12 3.12 0 0 0 .03 1.57c.1344.4864.4009.926.77 1.27.3794.3668.854.6197 1.37.73a2.8296 2.8296 0 0 0 1.53 0 2.939 2.939 0 0 0 1.25-.81 3.1294 3.1294 0 0 0 .7-1.41 3.07 3.07 0 0 0-.12-1.91l-2.29-.58ZM9.66 15.0001l-2.33 3.11 1 1.79-.46.62-3.7-6.75.43-.59 7.5299 1.62-.47.62-2-.42Zm-.66-.16-4-.9 2 3.59 2-2.69ZM9 8.55l.6-.45 3.81 5.1 3.14-2.35.38.51-3.73 2.79L9 8.55ZM15.2998 4.38l.67-.3 2.64 5.78 3.57-1.62.26.58-4.24 1.93-2.9-6.37ZM28.48 6.68l.15.63-4.82 1.13-1.6-6.82L26.89.53l.14.62-4 .93.57 2.42 3.52-.83.15.62-3.53.82.6 2.53 4.14-.96ZM35.3498 6.93l-1.67-2.2a5.0685 5.0685 0 0 1-.56 0l-1.88.06.07 2.22h-.74l-.23-7 2.66-.01a3.1599 3.1599 0 0 1 2.12.57 2.2 2.2 0 0 1 .82 1.74 2.3196 2.3196 0 0 1-.37 1.4 2.3294 2.3294 0 0 1-1.16.85l1.75 2.34-.81.03Zm-.7-3.29a1.589 1.589 0 0 0 .51-1.31 1.6096 1.6096 0 0 0-.59-1.28 2.43 2.43 0 0 0-1.57-.41l-1.9.07.12 3.5 1.86-.06a2.3998 2.3998 0 0 0 1.57-.51ZM40.6396 5.07l-.36 2.39-.73-.11.37-2.35-2.07-5 .78.12 1.77 4.26 3-3.53.7.15-3.46 4.07ZM50.5298 4.65l.87 1.13-.38.3-.87-1.16-.55 1.31-.42-.18.56-1.31-1.44.19v-.48l1.42-.16-.88-1.13.39-.3.77 1.14.54-1.32.43.18-.51 1.34 1.44-.2v.49l-1.37.16ZM53.8704 12.71a2.7702 2.7702 0 0 1-.43-1.21l.59-.26a2.761 2.761 0 0 0 .38 1.12c.2234.383.5149.7219.86 1a2.3502 2.3502 0 0 0 1.3.63 1.0903 1.0903 0 0 0 .94-.39.9002.9002 0 0 0 .23-.68 1.8394 1.8394 0 0 0-.24-.69 10.4793 10.4793 0 0 0-.61-.89 9.0986 9.0986 0 0 1-.72-1.1 2.0001 2.0001 0 0 1-.26-.94 1.47 1.47 0 0 1 .39-1 1.8305 1.8305 0 0 1 .83-.57 2 2 0 0 1 1.11 0c.4672.1528.899.3976 1.27.72.3079.2561.5803.552.81.88a3.258 3.258 0 0 1 .47 1l-.57.3a3.5204 3.5204 0 0 0-.44-.94 3.6084 3.6084 0 0 0-.67-.69 2.2198 2.2198 0 0 0-1.29-.61 1.0795 1.0795 0 0 0-.94.41.8608.8608 0 0 0-.23.68c.0234.2522.1056.4954.24.71.14.23.34.53.61.89.2677.3408.5084.7019.72 1.08a2 2 0 0 1 .27.94 1.4698 1.4698 0 0 1-.39 1 1.7796 1.7796 0 0 1-.84.57 1.9198 1.9198 0 0 1-1.11 0 3.7111 3.7111 0 0 1-1.28-.72 4.5512 4.5512 0 0 1-1-1.24ZM63.9297 14.17l-1.41-2 .52-.37 3.25 4.64-.52.37-1.41-2-5.22 3.65-.42-.61 5.21-3.68ZM61.6902 22.39a3.3197 3.3197 0 0 1 1-1.56 3.5497 3.5497 0 0 1 1.64-.83 3.6196 3.6196 0 0 1 1.88.07 3.5599 3.5599 0 0 1 1.53 1 3.75 3.75 0 0 1 .85 1.74 3.8088 3.8088 0 0 1 0 1.93 3.4195 3.4195 0 0 1-1 1.56 3.7103 3.7103 0 0 1-3.57.78 3.3508 3.3508 0 0 1-1.53-1 3.7605 3.7605 0 0 1-.85-1.73 3.851 3.851 0 0 1 .05-1.96Zm1.31 3.18a2.7409 2.7409 0 0 0 1.25.81 3.1001 3.1001 0 0 0 2.9-.64 2.8397 2.8397 0 0 0 .79-1.25 3.2192 3.2192 0 0 0-.65-2.94 2.8488 2.8488 0 0 0-1.29-.81 3 3 0 0 0-1.54 0 2.7601 2.7601 0 0 0-1.36.69 2.7897 2.7897 0 0 0-.79 1.26 2.9995 2.9995 0 0 0 0 1.55c.1095.4961.3475.9547.69 1.33ZM60.9302 34l2.59-1c0-.18.06-.36.11-.55l.49-1.81-2.12-.55.19-.71 6.76 1.81-.68 2.53a3.1694 3.1694 0 0 1-1.16 1.86 2.1591 2.1591 0 0 1-1.9.28 2.1705 2.1705 0 0 1-1.71-2.11l-2.76 1 .19-.75Zm3.35.28a1.8009 1.8009 0 0 0 1.1122.8702 1.7997 1.7997 0 0 0 1.3978-.2002 2.39 2.39 0 0 0 .85-1.41l.48-1.8-3.39-.91-.48 1.8a2.4103 2.4103 0 0 0 .03 1.65ZM57.3401 40.44l-.51-.39 3-3.95 5.58 4.23-2.9 3.83-.51-.39 2.45-3.23-2-1.51-2.19 2.89-.5-.38 2.24-2.89-2.07-1.57-2.59 3.36ZM55.0003 48.41l-1.43.08v-.48l1.43-.01-.77-1.19.39-.25.76 1.2.62-1.34.43.23-.68 1.26 1.43-.08v.49h-1.45l.77 1.19-.39.25-.76-1.2-.66 1.3-.42-.24.73-1.21ZM42.0002 47.61l1.21.67a3.1124 3.1124 0 0 1 .8307-1.0043 3.112 3.112 0 0 1 1.1693-.5757 3.161 3.161 0 0 1 1.23-.13c.3597.0276.7053.152 1 .36a1.58 1.58 0 0 1 .56.8 1.7696 1.7696 0 0 1-.06 1.2 4.9992 4.9992 0 0 1-1 1.39c.3297.1772.6355.3956.91.65.1886.1949.329.4312.41.69a1.329 1.329 0 0 1-.26 1.17 1.9192 1.9192 0 0 1-1.12.77 1.7398 1.7398 0 0 1-1.24 0 1.2491 1.2491 0 0 1-.72-.85 1.3603 1.3603 0 0 1 .07-1 4.803 4.803 0 0 1 .89-1.23l-2.41-1.34a4.7617 4.7617 0 0 0-.06 1.43h-.61a4.7832 4.7832 0 0 1 .2-1.74l-1.26-.7.26-.56Zm1.74 1 2.65 1.47a4.1776 4.1776 0 0 0 .85-1.15 1.2696 1.2696 0 0 0 0-.9 1.0794 1.0794 0 0 0-.7-.75 2.0003 2.0003 0 0 0-1.28 0 2.4 2.4 0 0 0-1.56 1.3l.04.03Zm3.76 4a.8991.8991 0 0 0 .08-.74 1.2297 1.2297 0 0 0-.32-.52 4.3206 4.3206 0 0 0-.83-.55 5.2204 5.2204 0 0 0-.79 1 1.0002 1.0002 0 0 0-.08.74.841.841 0 0 0 .44.53c.2546.096.5354.096.79 0a1.1894 1.1894 0 0 0 .67-.47l.04.01ZM29.8096 55.3199l.14-7h.71l-.11 5.6 2.84-4.66h.35l2.66 4.74.1-5.57h.71l-.13 7h-.61l-2.94-5.23-3.11 5.13-.61-.01ZM26.33 48a3.4098 3.4098 0 0 1 .91 3.46 3.5597 3.5597 0 0 1-.95 1.63 3.3602 3.3602 0 0 1-1.61.88 3.8801 3.8801 0 0 1-1.94-.06 3.7601 3.7601 0 0 1-1.68-.91 3.3596 3.3596 0 0 1-.93-1.58 3.6906 3.6906 0 0 1 1-3.52 3.4496 3.4496 0 0 1 1.58-.9 3.8488 3.8488 0 0 1 1.93.06c.6355.161 1.218.485 1.69.94Zm-3.41-.35a2.6694 2.6694 0 0 0-1.29.72 2.8893 2.8893 0 0 0-.76 1.33 2.849 2.849 0 0 0 0 1.53c.1179.4869.371.9306.73 1.28a3.0707 3.0707 0 0 0 1.35.77 3.1406 3.1406 0 0 0 1.55 0 2.8412 2.8412 0 0 0 1.3-.72 2.9405 2.9405 0 0 0 .76-1.33 2.8798 2.8798 0 0 0 0-1.54 2.8097 2.8097 0 0 0-.74-1.28 2.9997 2.9997 0 0 0-1.36-.76 2.8898 2.8898 0 0 0-1.54 0ZM15.3495 43l.27 2.75a4.672 4.672 0 0 1 .5.25l1.63.94 1.1-1.94.65.37-3.5 6.03-2.28-1.31a3.1797 3.1797 0 0 1-1.5-1.6 2.1996 2.1996 0 0 1 .22-1.9 2.291 2.291 0 0 1 1.05-1 2.3208 2.3208 0 0 1 1.44-.11l-.29-2.94.71.46Zm-1.14 3.16a1.8004 1.8004 0 0 0-1.29 2.25 2.4603 2.4603 0 0 0 1.15 1.19l1.61.93 1.75-3-1.61-.93a2.4706 2.4706 0 0 0-1.61-.49v.05ZM9.43 38.31l.45-.45 3.45 3.55-5 4.88L5 42.85l.46-.45 2.83 2.91L10 43.58 7.52 41l.48-.46 2.53 2.6 1.86-1.81-2.96-3.02ZM2.0004 34.38l.24-1.38.47.07-.27 1.42 1.33-.49.16.44-1.35.46 1.11.94-.32.36-1.07-1-.25 1.42-.48-.09.28-1.42-1.34.48-.15-.39 1.34-.47-1.11-.93.33-.36 1.08.94Z" />
	</g>
	<defs>
		<clipPath id="a">
			<path d="M0 0h68.93v55.46H0z" />
		</clipPath>
	</defs>
</svg>